{"title":"Tom And Jerrys Giant Adventure 2013 BRRip 480p x264 - VYTO [P2PD","uid":8832423,"size":217444550,"categoryP":"video","categoryS":"movies","magnet":"?xt=urn:btih:e89a97d4a097253f414f5a1cd8d9c491ee442c16&amp;dn=Tom+And+Jerrys+Giant+Adventure+2013+BRRip+480p+x264+-+VYTO+%5BP2PD&amp;tr=udp%3A%2F%2Ftracker.openbittorrent.com%3A80&amp;tr=udp%3A%2F%2Fopen.demonii.com%3A1337&amp;tr=udp%3A%2F%2Ftracker.coppersurfer.tk%3A6969&amp;tr=udp%3A%2F%2Fexodus.desync.com%3A6969","seeders":1,"leechers":1,"uploader":"ValidusVyto","files":-1,"time":1377022470,"description":"_______ Visit us at our Semi Public Bittorrent Community ________\n  &lt;a href=&quot;\nhttp://p2pdl.com&quot; rel=&quot;nofollow&quot; target=&quot;_NEW&quot;&gt;\nhttp://p2pdl.com&lt;/a&gt;  _____________________________ &lt;a href=&quot; http://p2pdl.com&quot; rel=&quot;nofollow&quot; target=&quot;_NEW&quot;&gt; http://p2pdl.com&lt;/a&gt;\n\n                         \nTom And Jerrys Giant Adventure 2013 BRRip 480p x264 - VYTO\n\n\nGenre: Animation | Comedy | Family\nPlot: Tom and Jerry are the faithful servants of Jack, the owner of a struggling\nstorybook amusement park that gets a much-needed boost thanks to some mysterious\nmagical beans .  \nDirector: Spike Brandt, Tony Cervone\nStars: Jacob Bertrand, Grey DeLisle, Garrison Keillor.\nRated: N/a\n\n\nIMDb: &lt;a href=&quot;\nhttp://www.imdb.com/title/tt3108584/&quot; rel=&quot;nofollow&quot; target=&quot;_NEW&quot;&gt;\nhttp://www.imdb.com/title/tt3108584/&lt;/a&gt;\n\n\nFormat                         : MPEG-4\nDuration                       : 57mn 7s\nOverall bit rate mode          : Variable\nOverall bit rate               : 492 Kbps\n\nVideo\nFormat                         : AVC\nBit rate                       : 449 Kbps\nWidth                          : 720 pixels\nHeight                         : 400 pixels\nDisplay aspect ratio           : 16:9\nFrame rate mode                : Constant\nFrame rate                     : 23.976 fps\nBit depth                      : 10 bits\nStream size                    : 183 MiB (91%)\nWriting library                : x264 core 133 r2334\n\nAudio\nFormat                         : AAC\nBit rate mode                  : Variable\nBit rate                       : 39.8 Kbps\nChannel(s)                     : 2 channels\nChannel positions              : Front: L R\nSampling rate                  : 48.0 KHz\nStream size                    : 16.3 MiB (8%)\nLanguage                       : English\n\nSubtitle\t\t       : Yes(English)\n\nSource                         : 720p.BluRay.DD5.1.x264-PublicHD\n &lt;a href=&quot;\nhttp://ultraimg.com/images/lrENA.png&quot; rel=&quot;nofollow&quot; target=&quot;_NEW&quot;&gt;\nhttp://ultraimg.com/images/lrENA.png&lt;/a&gt; &lt;a href=&quot;\nhttp://ultraimg.com/images/vVwWx.png&quot; rel=&quot;nofollow&quot; target=&quot;_NEW&quot;&gt;\nhttp://ultraimg.com/images/vVwWx.png&lt;/a&gt; &lt;a href=&quot;\nhttp://ultraimg.com/images/nsS1K.png&quot; rel=&quot;nofollow&quot; target=&quot;_NEW&quot;&gt;\nhttp://ultraimg.com/images/nsS1K.png&lt;/a&gt; &lt;a href=&quot;\nhttp://ultraimg.com/images/mH6sE.png&quot; rel=&quot;nofollow&quot; target=&quot;_NEW&quot;&gt;\nhttp://ultraimg.com/images/mH6sE.png&lt;/a&gt; &lt;a href=&quot;\nhttp://ultraimg.com/images/ZA7vr.png&quot; rel=&quot;nofollow&quot; target=&quot;_NEW&quot;&gt;\nhttp://ultraimg.com/images/ZA7vr.png&lt;/a&gt; &lt;a href=&quot;\nhttp://ultraimg.com/images/kL1VW.png&quot; rel=&quot;nofollow&quot; target=&quot;_NEW&quot;&gt;\nhttp://ultraimg.com/images/kL1VW.png&lt;/a&gt;\n\n\n----------------------------------------------------------------------------------------------------\n\n\nEncoded using revolutionary 10bit encoding, which enables us to provide you more crispier \nand sharper images at small sizes, just make sure you follow our instructions without a fault.\nRecommend to you to use latest version of VLC player. Install K-Lite Codec Pack or shark007 codecs\nin case of any kind of problem in playback (For non-VLC Media Player users). Alternatively, install\nCore AVC codecs, the fastest decoder that there is coupled with Community Center Codec Pack and play\non Windows Media Player Classic. Check sample to be sure.\nEnjoy!\n\nEncoder Notes:Looking For Early Access To Anything You Can Provide DVDScr, R5, DVDR, BluRay, Direct\nAudio, Music Releases and Seedboxes. We require dedicated servers, so as to do more \nand fast releases of movies.\nIf You Got anything to offer please contact us at &quot;&lt;a class=&quot;__cf_email__&quot; href=&quot;/cdn-cgi/l/email-protection&quot; data-cfemail=&quot;4b3b392c0b233e382365282426&quot;&gt;[email&amp;#160;protected]&lt;/a&gt;&lt;script cf-hash='f9e31' type=&quot;text/javascript&quot;&gt;\n/* &lt;![CDATA[ */!function(){try{var t=&quot;currentScript&quot;in document?document.currentScript:function(){for(var t=document.getElementsByTagName(&quot;script&quot;),e=t.length;e--;)if(t[e].getAttribute(&quot;cf-hash&quot;))return t[e]}();if(t&amp;&amp;t.previousSibling){var e,r,n,i,c=t.previousSibling,a=c.getAttribute(&quot;data-cfemail&quot;);if(a){for(e=&quot;&quot;,r=parseInt(a.substr(0,2),16),n=2;a.length-n;n+=2)i=parseInt(a.substr(n,2),16)^r,e+=String.fromCharCode(i);e=document.createTextNode(e),c.parentNode.replaceChild(e,c)}}}catch(u){}}();/* ]]&gt; */&lt;/script&gt;&quot;.\n\nFace book Fan Page:  \nSearch P2PDL on FB and hit like!!!\n\nFor more of our team uploads visit @           &lt;a href=&quot;\nhttp://thepiratebay.se/user/vitamin_x&quot; rel=&quot;nofollow&quot; target=&quot;_NEW&quot;&gt;\nhttp://thepiratebay.se/user/vitamin_x&lt;/a&gt;\t","torrent":{"xt":"urn:btih:e89a97d4a097253f414f5a1cd8d9c491ee442c16","amp;dn":"Tom+And+Jerrys+Giant+Adventure+2013+BRRip+480p+x264+-+VYTO+%5BP2PD","amp;tr":["udp%3A%2F%2Ftracker.openbittorrent.com%3A80","udp%3A%2F%2Fopen.demonii.com%3A1337","udp%3A%2F%2Ftracker.coppersurfer.tk%3A6969","udp%3A%2F%2Fexodus.desync.com%3A6969"],"infoHash":"e89a97d4a097253f414f5a1cd8d9c491ee442c16","infoHashBuffer":{"type":"Buffer","data":[232,154,151,212,160,151,37,63,65,79,90,28,216,217,196,145,238,68,44,22]},"announce":[],"urlList":[]}}